<svg xmlns="http://www.w3.org/2000/svg" version="1.1" xmlns:xlink="http://www.w3.org/1999/xlink" xmlns:svgjs="http://svgjs.com/svgjs" width="1440" height="560" preserveAspectRatio="none" viewBox="0 0 1440 560"><g mask="url(&quot;#SvgjsMask1000&quot;)" fill="none"><rect width="1440" height="560" x="0" y="0" fill="#0e2a47"></rect><path d="M 0,234 C 57.6,194.2 172.8,37.2 288,35 C 403.2,32.8 460.8,211.6 576,223 C 691.2,234.4 748.8,88 864,92 C 979.2,96 1036.8,244.4 1152,243 C 1267.2,241.6 1382.4,116.6 1440,85L1440 560L0 560z" fill="#184a7e"></path><path d="M 0,413 C 96,416.4 288,431.2 480,430 C 672,428.8 768,395.8 960,407 C 1152,418.2 1344,470.2 1440,486L1440 560L0 560z" fill="#2264ab"></path></g><defs><mask id="SvgjsMask1000"><rect width="1440" height="560" fill="#ffffff"></rect></mask></defs></svg>